<?xml version="1.0" encoding="UTF-8" standalone="no"?>
<!-- Created with Inkscape (http://www.inkscape.org/) -->

<svg
   xmlns:dc="http://purl.org/dc/elements/1.1/"
   xmlns:cc="http://creativecommons.org/ns#"
   xmlns:rdf="http://www.w3.org/1999/02/22-rdf-syntax-ns#"
   xmlns:svg="http://www.w3.org/2000/svg"
   xmlns="http://www.w3.org/2000/svg"
   xmlns:sodipodi="http://sodipodi.sourceforge.net/DTD/sodipodi-0.dtd"
   xmlns:inkscape="http://www.inkscape.org/namespaces/inkscape"
   inkscape:export-ydpi="96"
   inkscape:export-xdpi="96"
   inkscape:export-filename="C:\wamp\www\Looper\graphics\jsttle.png"
   sodipodi:docname="jslttle.svg"
   inkscape:version="0.92.3 (2405546, 2018-03-11)"
   id="svg839"
   version="1.1"
   viewBox="0 0 129.64581 31.749999"
   height="120"
   width="490">
  <sodipodi:namedview
     inkscape:window-maximized="1"
     inkscape:window-y="-8"
     inkscape:window-x="-8"
     inkscape:window-height="705"
     inkscape:window-width="1366"
     units="px"
     showgrid="false"
     inkscape:current-layer="layer1"
     inkscape:document-units="mm"
     inkscape:cy="62.708951"
     inkscape:cx="-7.4375052"
     inkscape:zoom="0.80240837"
     inkscape:pageshadow="2"
     inkscape:pageopacity="0.0"
     borderopacity="1.0"
     bordercolor="#666666"
     pagecolor="#ffffff"
     id="base" />
  <defs
     id="defs833" />
  <metadata
     id="metadata836">
    <rdf:RDF>
      <cc:Work
         rdf:about="">
        <dc:format>image/svg+xml</dc:format>
        <dc:type
           rdf:resource="http://purl.org/dc/dcmitype/StillImage" />
        <dc:title />
      </cc:Work>
    </rdf:RDF>
  </metadata>
  <g
     transform="translate(0,-265.25001)"
     id="layer1"
     inkscape:groupmode="layer"
     inkscape:label="Layer 1">
    <path
       sodipodi:type="star"
       style="opacity:1;fill:none;fill-opacity:1;stroke:#aa0000;stroke-width:1.86503005;stroke-linecap:round;stroke-linejoin:round;stroke-miterlimit:4;stroke-dasharray:none;stroke-opacity:1"
       id="path2659"
       sodipodi:sides="16"
       sodipodi:cx="-25.965321"
       sodipodi:cy="340.87811"
       sodipodi:r1="10.856126"
       sodipodi:r2="7.6555085"
       sodipodi:arg1="0.7722368"
       sodipodi:arg2="0.95856972"
       inkscape:flatsided="false"
       inkscape:rounded="0.37"
       inkscape:randomized="0"
       d="m -18.188516,348.45286 c -0.925484,0.96941 -2.272766,-2.06891 -3.377252,-1.30971 -1.131498,0.77778 1.142547,3.15447 -0.113452,3.70917 -1.226015,0.54145 -1.308023,-2.78117 -2.618972,-2.50243 -1.343009,0.28557 -0.151587,3.35159 -1.524251,3.38341 -1.339896,0.0311 -0.144147,-3.07003 -1.461978,-3.31418 -1.350059,-0.25012 -1.422644,3.03845 -2.702998,2.54255 -1.24979,-0.48405 1.041675,-2.8915 -0.08241,-3.62137 -1.151575,-0.74773 -2.477115,2.26274 -3.470237,1.31462 -0.969415,-0.92549 2.068911,-2.27277 1.309704,-3.37725 -0.777775,-1.1315 -3.154469,1.14254 -3.709166,-0.11346 -0.541454,-1.22601 2.781175,-1.30802 2.502428,-2.61897 -0.285565,-1.34301 -3.351583,-0.15159 -3.383406,-1.52425 -0.03106,-1.3399 3.070029,-0.14415 3.314179,-1.46198 0.25012,-1.35006 -3.03845,-1.42264 -2.542554,-2.703 0.484057,-1.24979 2.8915,1.04168 3.621376,-0.0824 0.747726,-1.15157 -2.262738,-2.47711 -1.31462,-3.47023 0.925484,-0.96942 2.272765,2.06891 3.377252,1.3097 1.131497,-0.77777 -1.142547,-3.15447 0.113451,-3.70916 1.226016,-0.54146 1.308024,2.78117 2.618973,2.50242 1.343008,-0.28556 0.151587,-3.35158 1.524251,-3.3834 1.339896,-0.0311 0.144147,3.07003 1.461978,3.31418 1.350059,0.25012 1.422643,-3.03845 2.702998,-2.54256 1.24979,0.48406 -1.041675,2.8915 0.08241,3.62138 1.151575,0.74772 2.477115,-2.26274 3.470237,-1.31462 0.969415,0.92548 -2.068911,2.27276 -1.309704,3.37725 0.777775,1.1315 3.154469,-1.14255 3.709165,0.11345 0.541455,1.22602 -2.781174,1.30803 -2.502427,2.61897 0.285565,1.34301 3.351583,0.15159 3.383406,1.52426 0.03106,1.33989 -3.070029,0.14414 -3.314179,1.46197 -0.25012,1.35006 3.038449,1.42265 2.542554,2.703 -0.484058,1.24979 -2.8915,-1.04167 -3.621376,0.0824 -0.747726,1.15158 2.262738,2.47712 1.31462,3.47024 z"
       inkscape:transform-center-x="1.399062"
       inkscape:transform-center-y="0.62443518"
       transform="matrix(0.70944636,0,0,0.70920817,72.599538,39.767851)" />
    <path
       sodipodi:type="star"
       style="opacity:1;fill:none;fill-opacity:1;stroke:#aa0000;stroke-width:1.86503005;stroke-linecap:round;stroke-linejoin:round;stroke-miterlimit:4;stroke-dasharray:none;stroke-opacity:1"
       id="path2659-7"
       sodipodi:sides="16"
       sodipodi:cx="-25.965321"
       sodipodi:cy="340.87811"
       sodipodi:r1="10.856126"
       sodipodi:r2="7.6555085"
       sodipodi:arg1="0.7722368"
       sodipodi:arg2="0.95856972"
       inkscape:flatsided="false"
       inkscape:rounded="0.37"
       inkscape:randomized="0"
       d="m -18.188516,348.45286 c -0.925484,0.96941 -2.272766,-2.06891 -3.377252,-1.30971 -1.131498,0.77778 1.142547,3.15447 -0.113452,3.70917 -1.226015,0.54145 -1.308023,-2.78117 -2.618972,-2.50243 -1.343009,0.28557 -0.151587,3.35159 -1.524251,3.38341 -1.339896,0.0311 -0.144147,-3.07003 -1.461978,-3.31418 -1.350059,-0.25012 -1.422644,3.03845 -2.702998,2.54255 -1.24979,-0.48405 1.041675,-2.8915 -0.08241,-3.62137 -1.151575,-0.74773 -2.477115,2.26274 -3.470237,1.31462 -0.969415,-0.92549 2.068911,-2.27277 1.309704,-3.37725 -0.777775,-1.1315 -3.154469,1.14254 -3.709166,-0.11346 -0.541454,-1.22601 2.781175,-1.30802 2.502428,-2.61897 -0.285565,-1.34301 -3.351583,-0.15159 -3.383406,-1.52425 -0.03106,-1.3399 3.070029,-0.14415 3.314179,-1.46198 0.25012,-1.35006 -3.03845,-1.42264 -2.542554,-2.703 0.484057,-1.24979 2.8915,1.04168 3.621376,-0.0824 0.747726,-1.15157 -2.262738,-2.47711 -1.31462,-3.47023 0.925484,-0.96942 2.272765,2.06891 3.377252,1.3097 1.131497,-0.77777 -1.142547,-3.15447 0.113451,-3.70916 1.226016,-0.54146 1.308024,2.78117 2.618973,2.50242 1.343008,-0.28556 0.151587,-3.35158 1.524251,-3.3834 1.339896,-0.0311 0.144147,3.07003 1.461978,3.31418 1.350059,0.25012 1.422643,-3.03845 2.702998,-2.54256 1.24979,0.48406 -1.041675,2.8915 0.08241,3.62138 1.151575,0.74772 2.477115,-2.26274 3.470237,-1.31462 0.969415,0.92548 -2.068911,2.27276 -1.309704,3.37725 0.777775,1.1315 3.154469,-1.14255 3.709165,0.11345 0.541455,1.22602 -2.781174,1.30803 -2.502427,2.61897 0.285565,1.34301 3.351583,0.15159 3.383406,1.52426 0.03106,1.33989 -3.070029,0.14414 -3.314179,1.46197 -0.25012,1.35006 3.038449,1.42265 2.542554,2.703 -0.484058,1.24979 -2.8915,-1.04167 -3.621376,0.0824 -0.747726,1.15158 2.262738,2.47712 1.31462,3.47024 z"
       inkscape:transform-center-x="1.399062"
       inkscape:transform-center-y="0.62443518"
       transform="matrix(0.70944637,0,0,0.70920816,90.652254,39.767444)" />
    <path
       style="opacity:1;fill:#000000;fill-opacity:1;stroke:none;stroke-width:5;stroke-linecap:round;stroke-linejoin:round;stroke-miterlimit:4;stroke-dasharray:none;stroke-opacity:1"
       d="m 11.669313,107.70356 v -4.57412 l 3.246201,-0.43062 c 7.221044,-0.9579 14.579619,-6.372284 17.63186,-12.973376 1.394879,-3.016703 1.426751,-3.851548 1.623307,-42.519717 L 34.371173,7.7631325 h 4.625817 4.625817 l -0.0039,37.4455015 c -0.0022,21.311567 -0.285333,39.166457 -0.657141,41.439688 -1.909975,11.677604 -11.695754,21.696528 -24.031772,24.604338 -7.323188,1.72619 -7.26072,1.75673 -7.26072,-3.5491 z"
       id="path1323"
       inkscape:connector-curvature="0"
       transform="matrix(0.26458333,0,0,0.26458333,0,265.25001)" />
    <path
       style="opacity:1;fill:#000000;fill-opacity:1;stroke:none;stroke-width:5;stroke-linecap:round;stroke-linejoin:round;stroke-miterlimit:4;stroke-dasharray:none;stroke-opacity:1"
       d="M 56.936763,85.728115 V 81.05947 l 15.144625,-0.201214 c 17.31226,-0.230012 18.79711,-0.61398 22.467301,-5.809851 1.780078,-2.520047 1.997093,-3.357351 1.997093,-7.705319 0,-4.347968 -0.217015,-5.185273 -1.997093,-7.705318 C 91.37939,55.151008 88.644334,54.111752 78.853977,53.674154 71.527114,53.346666 70.017931,53.07293 66.765131,51.481483 61.865099,49.084121 57.879266,45.121097 55.706127,40.485764 54.2062,37.2864 53.941123,35.821186 53.941123,30.729707 c 0,-5.199167 0.243836,-6.487805 1.844295,-9.746819 2.246338,-4.574221 6.63354,-8.747416 11.685916,-11.1158795 3.70576,-1.7371944 4.079963,-1.7752151 19.588255,-1.990255 L 102.86991,7.6575256 v 4.7126884 4.712688 H 89.052287 c -7.599693,0 -14.833663,0.291396 -16.075489,0.647547 -3.840673,1.10149 -6.66286,3.490481 -8.484244,7.181941 -3.286145,6.660137 -0.902979,14.44878 5.425316,17.730977 2.119883,1.099486 4.36974,1.457363 11.034828,1.755272 7.339594,0.328057 8.832891,0.59968 12.1091,2.202579 4.822621,2.359489 9.940492,7.922404 11.758212,12.78069 4.14034,11.066052 -1.14619,23.614689 -12.074374,28.660931 l -4.188227,1.933972 -15.810323,0.209975 -15.810323,0.209974 z"
       id="path1325"
       inkscape:connector-curvature="0"
       transform="matrix(0.26458333,0,0,0.26458333,0,265.25001)" />
    <path
       style="opacity:1;fill:#000000;fill-opacity:1;stroke:none;stroke-width:5;stroke-linecap:round;stroke-linejoin:round;stroke-miterlimit:4;stroke-dasharray:none;stroke-opacity:1"
       d="M 117.51526,49.036396 V 7.7631325 h 4.65989 4.65988 V 44.376512 80.989891 h 21.96803 21.96803 v 4.659884 4.659885 h -26.62791 -26.62792 z"
       id="path1327"
       inkscape:connector-curvature="0"
       transform="matrix(0.26458333,0,0,0.26458333,0,265.25001)" />
    <path
       style="opacity:1;fill:#000000;fill-opacity:1;stroke:none;stroke-width:5;stroke-linecap:round;stroke-linejoin:round;stroke-miterlimit:4;stroke-dasharray:none;stroke-opacity:1"
       d="m 312.56472,88.11958 c 0,-31.190707 0.1525,-32.824524 3.72118,-39.866978 6.52948,-12.885301 24.06157,-18.785098 37.34738,-12.567919 11.8716,5.555393 18.11954,15.811916 17.38298,28.535615 -1.30978,22.62571 -28.19035,35.227595 -46.25814,21.68629 -1.1655,-0.873515 -2.28887,-1.588208 -2.49637,-1.588208 -0.20749,0 -0.37726,7.339318 -0.37726,16.3096 v 16.30959 h -4.65989 -4.65988 z m 36.58678,-7.058339 c 4.96671,-1.887203 8.32502,-4.893164 10.63804,-9.521919 1.74137,-3.484793 2.03682,-4.817694 2.03682,-9.18897 0,-8.915495 -4.52533,-15.664708 -12.50681,-18.653054 -4.3274,-1.620222 -10.09553,-1.700664 -14.50179,-0.202239 -4.46166,1.517261 -10.30037,7.355968 -11.81763,11.817629 -2.36302,6.94868 -0.92156,14.787354 3.68071,20.015809 5.61738,6.381682 14.67876,8.693433 22.47066,5.732744 z"
       id="path1329"
       inkscape:connector-curvature="0"
       transform="matrix(0.26458333,0,0,0.26458333,0,265.25001)" />
    <path
       style="opacity:1;fill:#000000;fill-opacity:1;stroke:none;stroke-width:5;stroke-linecap:round;stroke-linejoin:round;stroke-miterlimit:4;stroke-dasharray:none;stroke-opacity:1"
       d="M 402.76677,90.745045 C 389.49609,87.289403 380.4659,75.787286 380.4659,62.339541 c 0,-22.907216 25.38578,-36.956739 44.66884,-24.721547 8.61009,5.463144 14.57848,16.881045 13.79809,26.396603 l -0.21838,2.662791 -24.13154,0.174728 c -15.8396,0.11469 -24.13155,0.407966 -24.13155,0.853504 0,1.726968 2.15132,5.492962 4.74562,8.307447 4.32438,4.691395 7.17985,5.935732 13.67067,5.957305 5.1005,0.01696 5.62933,-0.118675 8.58817,-2.202591 l 3.153,-2.220657 3.06153,3.096272 3.06154,3.096273 -2.32994,1.980051 c -5.7484,4.885156 -14.4297,6.90161 -21.63518,5.025325 z m 25.93795,-34.552397 c -1.63751,-5.489055 -7.04592,-11.072498 -12.47071,-12.874326 -4.36847,-1.450974 -11.76517,-1.021446 -15.46433,0.898017 -4.5699,2.371281 -10.31832,9.30311 -10.31832,12.442523 0,0.908016 2.31822,1.031606 19.3501,1.031606 h 19.35009 z"
       id="path1331"
       inkscape:connector-curvature="0"
       transform="matrix(0.26458333,0,0,0.26458333,0,265.25001)" />
    <path
       style="opacity:1;fill:#000000;fill-opacity:1;stroke:none;stroke-width:1.32291663;stroke-linecap:round;stroke-linejoin:round;stroke-miterlimit:4;stroke-dasharray:none;stroke-opacity:1"
       d="m 119.12266,285.30187 c 0,-2.11341 0.0863,-4.30968 0.19189,-4.88059 0.37611,-2.03456 1.63558,-3.90572 3.39385,-5.04215 1.184,-0.76525 2.97213,-1.38209 4.00651,-1.38209 h 0.68598 v 1.13688 1.13688 l -0.6605,0.10731 c -1.75839,0.28569 -3.3606,1.18757 -4.16065,2.34205 -0.87596,1.26402 -0.99122,2.00835 -0.99122,6.40123 v 4.02305 h -1.23293 -1.23293 z"
       id="path1333"
       inkscape:connector-curvature="0" />
  </g>
</svg>
