<svg xmlns="http://www.w3.org/2000/svg" viewBox="0 0 300 300" style="border: 1px solid #ddd;">

<rect style="fill:#00384d" transform="matrix(0.475650,0.000000,0.000000,0.475650,38.059428,28.233600)" height="32" width="32" y="64" x="222.728" />
<rect style="fill:#00384d" transform="matrix(0.475650,0.000000,0.000000,0.475650,38.059428,28.233600)" height="32" width="32" y="128" x="222.728" />
<rect style="fill:#00384d" transform="matrix(0.475650,0.000000,0.000000,0.475650,38.059428,28.233600)" height="32" width="32" y="192" x="222.728" />
<rect style="fill:#00384d" transform="matrix(0.475650,0.000000,0.000000,0.475650,38.059428,28.233600)" height="32" width="32" y="256" x="222.728" />
 
<path style="fill:#00384e" d="M253.42981 56.30074C253.42981 56.30074 240.56064 48.17284 240.56064 48.17284C240.56064 48.17284 233.41448 59.48188 233.41448 59.48188C231.58036 59.01003 229.693 58.67519 227.71429 58.67519C215.1267 58.67519 204.8831 68.91877 204.8831 81.50637C204.8831 87.07718 206.96834 92.12287 210.3017 96.0955C210.3017 96.0955 203.89376 106.24015 203.89376 106.24015C203.89376 106.24015 188.29243 28.2336 188.29243 28.2336C188.29243 28.2336 114.92823 28.2336 114.92823 28.2336C114.92823 28.2336 66.221696 271.76625 66.221696 271.76625C66.221696 271.76625 236.99135 271.76625 236.99135 271.76625C236.99135 271.76625 208.21645 127.89172 208.21645 127.89172C208.21645 127.89172 223.36876 103.90377 223.36876 103.90377C224.77667 104.17012 226.22266 104.33756 227.71429 104.33756C240.30188 104.33756 250.54547 94.09396 250.54547 81.50637C250.54547 76.44545 248.83313 71.80312 246.0325 68.01314C246.0325 68.01314 253.42981 56.30074 253.42981 56.30074M206.25297 195.6623C206.25297 195.6623 165.41558 195.6623 165.41558 195.6623C165.41558 195.6623 196.42796 146.55242 196.42796 146.55242C196.42796 146.55242 206.25297 195.6623 206.25297 195.6623M127.40928 43.45439C127.40928 43.45439 175.8114 43.45439 175.8114 43.45439C175.8114 43.45439 192.10524 124.90846 192.10524 124.90846C192.10524 124.90846 147.41701 195.6623 147.41701 195.6623C147.41701 195.6623 96.960083 195.6623 96.960083 195.6623C96.960083 195.6623 127.40928 43.45439 127.40928 43.45439M209.29712 210.88308C209.29712 210.88308 218.4296 256.54545 218.4296 256.54545C218.4296 256.54545 84.783451 256.54545 84.783451 256.54545C84.783451 256.54545 93.915925 210.88308 93.915925 210.88308C93.915925 210.88308 209.29712 210.88308 209.29712 210.88308M227.71429 89.11676C223.52095 89.11676 220.1039 85.70731 220.1039 81.50637C220.1039 77.30543 223.52095 73.89596 227.71429 73.89596C231.90762 73.89596 235.32468 77.30543 235.32468 81.50637C235.32468 85.70731 231.90762 89.11676 227.71429 89.11676C227.71429 89.11676 227.71429 89.11676 227.71429 89.11676" />

</svg>