<?xml version="1.0" encoding="UTF-8" standalone="no"?>
<!-- Created with Inkscape (http://www.inkscape.org/) -->

<svg
   xmlns:dc="http://purl.org/dc/elements/1.1/"
   xmlns:cc="http://creativecommons.org/ns#"
   xmlns:rdf="http://www.w3.org/1999/02/22-rdf-syntax-ns#"
   xmlns:svg="http://www.w3.org/2000/svg"
   xmlns="http://www.w3.org/2000/svg"
   xmlns:sodipodi="http://sodipodi.sourceforge.net/DTD/sodipodi-0.dtd"
   xmlns:inkscape="http://www.inkscape.org/namespaces/inkscape"
   inkscape:export-ydpi="96"
   inkscape:export-xdpi="96"
   inkscape:export-filename="C:\wamp\www\Looper\graphics\jslfav.png"
   sodipodi:docname="jslfav.svg"
   inkscape:version="0.92.4 (5da689c313, 2019-01-14)"
   id="svg839"
   version="1.1"
   viewBox="0 0 67.733323 67.733331"
   height="256"
   width="256">
  <sodipodi:namedview
     inkscape:window-maximized="1"
     inkscape:window-y="-11"
     inkscape:window-x="-11"
     inkscape:window-height="986"
     inkscape:window-width="1920"
     units="px"
     showgrid="true"
     inkscape:current-layer="layer1"
     inkscape:document-units="mm"
     inkscape:cy="67.417533"
     inkscape:cx="165.10438"
     inkscape:zoom="1.7153603"
     inkscape:pageshadow="2"
     inkscape:pageopacity="0.0"
     borderopacity="1.0"
     bordercolor="#666666"
     pagecolor="#ffffff"
     id="base"
     objecttolerance="1"
     gridtolerance="1">
    <inkscape:grid
       type="xygrid"
       id="grid819"
       spacingx="33.866664"
       spacingy="33.866664" />
  </sodipodi:namedview>
  <defs
     id="defs833" />
  <metadata
     id="metadata836">
    <rdf:RDF>
      <cc:Work
         rdf:about="">
        <dc:format>image/svg+xml</dc:format>
        <dc:type
           rdf:resource="http://purl.org/dc/dcmitype/StillImage" />
        <dc:title />
      </cc:Work>
    </rdf:RDF>
  </metadata>
  <g
     inkscape:label="Layer 1"
     inkscape:groupmode="layer"
     id="layer1"
     transform="translate(0,-229.26667)">
    <path
       inkscape:transform-center-y="6.1980285"
       inkscape:transform-center-x="6.1980315"
       d="M 203.19998,263.13334 169.33332,297 181.72937,343.26272 169.33331,297 l -46.26272,-12.39606 46.26272,12.39605 z"
       inkscape:randomized="0"
       inkscape:rounded="0"
       inkscape:flatsided="false"
       sodipodi:arg2="0.44377026"
       sodipodi:arg1="-0.78539816"
       sodipodi:r2="7.7637176e-006"
       sodipodi:r1="47.894695"
       sodipodi:cy="297"
       sodipodi:cx="169.33331"
       sodipodi:sides="3"
       id="path1716"
       style="opacity:1;fill:#000000;fill-opacity:1;stroke:none;stroke-width:5.29166651;stroke-linecap:round;stroke-linejoin:round;stroke-miterlimit:4;stroke-dasharray:none;stroke-opacity:1"
       sodipodi:type="star" />
    <path
       style="stroke-opacity:1;fill-opacity:1;stroke:none;stroke-miterlimit:4;stroke-dasharray:none;stroke-width:0.183243391906;fill:#b3b3b3"
       d="M31.393649 292.12761C30.500305 291.23427 30.116408 290.41771 30.111727 289.40094C30.099957 286.84221 29.443789 286.50566 28.411594 288.52894C27.522877 290.27096 25.66891 291.65778 24.228806 291.65778C22.904044 291.65778 21.077981 290.38597 20.540838 289.08919C20.101322 288.0281 20.121401 287.38083 20.649744 285.57848C21.00602 284.36311 21.219158 283.36872 21.123384 283.36872C21.027614 283.36872 20.136215 283.95768 19.142504 284.67752C16.773758 286.39343 14.559318 286.45012 12.945362 284.83616C11.188027 283.07883 11.451525 280.67926 13.66922 278.2443C14.767646 277.03826 14.478716 276.65538 12.917975 277.24878C9.3581584 278.60221 6.1237354 276.94653 6.1237354 273.77085C6.1237354 271.94551 7.4320114 270.31194 9.6195283 269.40584C11.247618 268.73146 10.901941 268.09938 8.9050414 268.09938C6.0522314 268.09938 3.9687024 266.29592 3.9521024 263.81222C3.9388124 261.82355 5.9412894 259.81285 7.9443104 259.80363C10.503041 259.79183 10.839591 259.13569 8.8163184 258.1035C7.0742924 257.21478 5.6874684 255.36081 5.6874684 253.92071C5.6874684 252.5717 6.9694484 250.76568 8.3258354 250.20384C9.4818203 249.72502 10.031792 249.74328 11.836545 250.32042C13.013541 250.6968 13.976538 250.92295 13.976538 250.82296C13.976538 250.72296 13.387578 249.82812 12.667737 248.83441C10.951826 246.46566 10.895138 244.25122 12.509095 242.63727C14.266429 240.87993 16.665991 241.14343 19.100952 243.36112C20.30699 244.45955 20.689871 244.17062 20.096478 242.60988C18.75124 239.07164 20.399954 235.81564 23.536825 235.81564C25.584368 235.81564 26.709855 236.63176 27.704656 238.83783C28.72172 241.09328 29.245875 241.09668 29.245875 238.84783C29.245875 235.58196 30.877492 233.6343 33.613421 233.6343C35.381954 233.6343 37.522481 235.68361 37.565606 237.41807C37.582456 238.09638 37.749621 239.044 37.937052 239.5239C38.238502 240.29572 38.383123 240.19012 39.190057 238.60894C40.712867 235.62501 42.85287 234.72293 45.347959 236.01319C47.276713 237.01059 47.858101 238.92276 47.024841 241.52844C46.64845 242.70543 46.422308 243.66843 46.522299 243.66843C46.622289 243.66843 47.517135 243.07947 48.510847 242.35963C50.879592 240.64372 53.09403 240.58703 54.707991 242.20099C56.465325 243.95832 56.201824 246.35789 53.984131 248.79285C52.885703 249.99888 53.174636 250.38176 54.735376 249.78837C58.295189 248.43493 61.529614 250.09061 61.529614 253.2663C61.529614 255.09164 60.221337 256.72521 58.033823 257.63131C56.407879 258.3048 56.750644 258.93777 58.741295 258.93777C63.158897 258.93777 65.329205 263.0581 62.435706 265.9516C61.593924 266.79338 60.716322 267.22684 59.853788 267.22684C57.218877 267.22684 57.023154 267.68025 59.09177 268.99212C61.279665 270.37964 61.96588 271.39438 61.96588 273.24219C61.96588 274.71143 60.357531 276.6662 58.84013 277.04119C58.279798 277.17966 56.888828 277.01049 55.749079 276.66526C54.609334 276.32003 53.676812 276.11821 53.676812 276.21678C53.676812 276.31538 54.265772 277.20903 54.985613 278.20274C56.701524 280.57149 56.758213 282.78593 55.144258 284.39988C53.386922 286.15722 50.98736 285.89372 48.552397 283.67603C47.34636 282.5776 46.963479 282.86653 47.55687 284.42727C48.913407 287.99523 47.25511 291.22151 44.064648 291.22151C42.742112 291.22151 42.169369 290.9312 41.108768 289.72324C40.385244 288.89919 39.663651 287.81658 39.505229 287.31744C39.082793 285.98646 38.407475 286.67284 38.407475 288.43319C38.407475 292.85079 34.287148 295.0211 31.393649 292.1276C31.393649 292.1276 31.393649 292.12761 31.393649 292.12761M37.542963 280.09495C38.364436 279.91453 39.339465 280.06195 40.215797 280.49915C41.943023 281.3608 41.89761 281.36668 41.89761 280.28129C41.89761 279.78294 42.47147 278.80134 43.172851 278.09996C44.14107 277.13174 44.852826 276.82472 46.129181 276.82472C46.129181 276.82472 47.810267 276.82472 47.810267 276.82472C47.810267 276.82472 47.644918 275.09085 47.644918 275.09085C47.505181 273.62558 47.684048 273.15249 48.799565 272.03698C49.525561 271.31098 50.549879 270.71698 51.075828 270.71698C51.991932 270.71698 52.002505 270.67178 51.327521 269.64166C50.213985 267.94219 50.42294 265.73374 51.828325 264.34867C51.828325 264.34867 53.0337 263.16072 53.0337 263.16072C53.0337 263.16072 51.850666 261.97768 51.850666 261.97768C50.267182 260.3942 49.936472 258.87496 50.798918 257.14614C51.669882 255.40026 51.675726 255.44764 50.589387 255.44764C50.091036 255.44764 49.109435 254.87379 48.408053 254.1724C47.439834 253.20418 47.132812 252.49243 47.132812 251.21607C47.132812 251.21607 47.132812 249.53499 47.132812 249.53499C47.132812 249.53499 45.387475 249.70143 45.387475 249.70143C43.877889 249.84539 43.465391 249.67863 42.333609 248.46709C41.613916 247.69666 41.025078 246.67184 41.025078 246.18973C41.025078 245.35833 40.969658 245.34947 39.949758 246.01773C38.237449 247.13968 36.042201 246.92269 34.632316 245.49212C34.632316 245.49212 33.419913 244.26194 33.419913 244.26194C33.419913 244.26194 32.411766 245.46005 32.411766 245.46005C31.098263 247.02106 29.221237 247.42783 27.437552 246.53801C25.710328 245.67636 25.75574 245.67048 25.75574 246.75587C25.75574 248.2686 23.443891 250.21244 21.644765 250.21244C20.110128 250.21244 20.084272 250.24194 20.084272 251.99107C20.084272 253.37523 19.801448 254.05252 18.809031 255.04494C18.107648 255.74632 17.114916 256.32018 16.602959 256.32018C15.728194 256.32018 15.713034 256.37858 16.351267 257.28978C17.484109 258.90714 17.22821 261.4559 15.798214 262.79821C15.798214 262.79821 14.566023 263.95485 14.566023 263.95485C14.566023 263.95485 15.764752 264.94192 15.764752 264.94192C17.325528 266.22711 17.737789 268.12028 16.846107 269.9077C15.984454 271.63493 15.978571 271.58952 17.063964 271.58952C18.576698 271.58952 20.520539 273.90136 20.520539 275.70049C20.520539 277.23513 20.550009 277.26098 22.299165 277.26098C23.683326 277.26098 24.360615 277.54381 25.353032 278.53622C26.054415 279.23761 26.628273 280.24178 26.628273 280.76773C26.628273 281.68384 26.673433 281.69441 27.70359 281.01943C29.44548 279.8781 31.773448 280.10691 33.095068 281.54935C33.095068 281.54935 34.22617 282.78386 34.22617 282.78386C34.22617 282.78386 35.23795 281.58143 35.23795 281.58143C35.794429 280.92009 36.831683 280.25118 37.542963 280.09495C37.542963 280.09495 37.542963 280.09495 37.542963 280.09495"
       id="path855" />
  </g>
</svg>
